<?xml version="1.0" encoding="utf-8"?>
<!-- Generator: Adobe Illustrator 16.0.4, SVG Export Plug-In . SVG Version: 6.00 Build 0)  -->
<!DOCTYPE svg PUBLIC "-//W3C//DTD SVG 1.1//EN" "http://www.w3.org/Graphics/SVG/1.1/DTD/svg11.dtd">
<svg version="1.1" id="Layer_1" xmlns="http://www.w3.org/2000/svg" xmlns:xlink="http://www.w3.org/1999/xlink" x="0px" y="0px"
	 width="159px" height="156px" viewBox="0 0 159 156" enable-background="new 0 0 159 156" xml:space="preserve">
<line fill="none" stroke="#FFB0BF" stroke-miterlimit="10" x1="129" y1="78.498" x2="114.062" y2="42.436"/>
<line fill="none" stroke="#FFB0BF" stroke-miterlimit="10" x1="114.062" y1="114.561" x2="129" y2="78.498"/>
<line fill="none" stroke="#FFB0BF" stroke-miterlimit="10" x1="128.205" y1="28.293" x2="149" y2="78.498"/>
<line fill="none" stroke="#FFB0BF" stroke-miterlimit="10" x1="128.205" y1="28.293" x2="77.5" y2="7.498"/>
<line fill="none" stroke="#FFB0BF" stroke-miterlimit="10" x1="114.062" y1="42.436" x2="128.205" y2="28.293"/>
<line fill="none" stroke="#FFB0BF" stroke-miterlimit="10" x1="41.938" y1="114.561" x2="7" y2="78.498"/>
<line fill="none" stroke="#FFB0BF" stroke-miterlimit="10" x1="27.5" y1="130.737" x2="27.5" y2="78.737"/>
<line fill="none" stroke="#FFB0BF" stroke-miterlimit="10" x1="128" y1="129.237" x2="78" y2="129.237"/>
<line fill="none" stroke="#FFB0BF" stroke-miterlimit="10" x1="77.5" y1="7.737" x2="77.5" y2="27.737"/>
<g>
	<g>
		<g>
			<circle fill="#FAFAFA" stroke="#FFB0BF" stroke-miterlimit="10" cx="78" cy="27.498" r="6"/>
			<circle fill="#FAFAFA" stroke="#FFB0BF" stroke-miterlimit="10" cx="78" cy="129.498" r="6"/>
		</g>
	</g>
	<g>
		<g>
			<circle fill="#FAFAFA" stroke="#FFB0BF" stroke-miterlimit="10" cx="41.938" cy="42.436" r="6"/>
			<circle fill="#FAFAFA" stroke="#FFB0BF" stroke-miterlimit="10" cx="114.062" cy="114.561" r="5.999"/>
		</g>
	</g>
	<g>
		<g>
			<circle fill="#FAFAFA" stroke="#FFB0BF" stroke-miterlimit="10" cx="27" cy="78.498" r="6"/>
			<circle fill="#FAFAFA" stroke="#FFB0BF" stroke-miterlimit="10" cx="129" cy="78.498" r="6"/>
		</g>
	</g>
	<circle fill="#FAFAFA" stroke="#FFB0BF" stroke-miterlimit="10" cx="114.062" cy="42.436" r="6"/>
	<circle fill="#FAFAFA" stroke="#FFB0BF" stroke-miterlimit="10" cx="41.938" cy="114.561" r="5.999"/>
</g>
<g>
	<circle fill="#FFFFFF" stroke="#FFB0BF" stroke-miterlimit="10" cx="78" cy="7.498" r="4"/>
	<circle fill="#FFFFFF" stroke="#FFB0BF" stroke-miterlimit="10" cx="78" cy="149.498" r="4"/>
</g>
<g>
	<circle fill="#FFFFFF" stroke="#FFB0BF" stroke-miterlimit="10" cx="128.205" cy="28.293" r="4"/>
	<circle fill="#FFFFFF" stroke="#FFB0BF" stroke-miterlimit="10" cx="27.795" cy="128.703" r="4"/>
</g>
<g>
	<circle fill="#FFFFFF" stroke="#FFB0BF" stroke-miterlimit="10" cx="149" cy="78.498" r="4"/>
	<circle fill="#FFFFFF" stroke="#FFB0BF" stroke-miterlimit="10" cx="7" cy="78.498" r="4"/>
</g>
<g>
	<circle fill="#FFFFFF" stroke="#FFB0BF" stroke-miterlimit="10" cx="128.205" cy="128.703" r="4"/>
	<circle fill="#FFFFFF" stroke="#FFB0BF" stroke-miterlimit="10" cx="27.795" cy="28.293" r="4"/>
</g>
</svg>
